<svg id="Layer_1" data-name="Layer 1" xmlns="http://www.w3.org/2000/svg" viewBox="0 0 62.08 24.23"><path d="M22.19,23.06c0,.42.29.63.88.63a6.47,6.47,0,0,0,3.13-1.07,5.66,5.66,0,0,0,1.05-.79c.05,0,.07.1.07.2a.55.55,0,0,1-.07.35A7.87,7.87,0,0,1,23.74,24a5.7,5.7,0,0,1-1.21.12,1.52,1.52,0,0,1-1.1-.41,1.15,1.15,0,0,1-.45-.83,3.55,3.55,0,0,1,.08-.76,5.65,5.65,0,0,1,.31-.83,31.44,31.44,0,0,1,3.76-5.74l2.37-2.9L30,9.8l2.45-2.65,2.32-2.36,2-2-1,.73-1.13,1-3.32,3-5.43,5.14a134.28,134.28,0,0,0-9.35,10C15.8,23.52,15.28,24,15,24c-.07,0-.14,0-.22-.15a1.51,1.51,0,0,1-.11-.74,6.47,6.47,0,0,1,.4-1.82,20.94,20.94,0,0,1,1.15-2.71c.5-1,1.11-2.08,1.82-3.24s1.51-2.35,2.4-3.61a95.36,95.36,0,0,1,6.28-7.84L25.55,5,23.64,7,21,9.83l-3.53,3.84q-6.54,7.19-11.08,9.51a7.29,7.29,0,0,1-3.21.91A3.5,3.5,0,0,1,1,23.55a1.69,1.69,0,0,1-.71-1.4,1.1,1.1,0,0,1,.35-.92,1.48,1.48,0,0,1,.9-.46c.62,0,.93.23.93.7a.7.7,0,0,1-.26.53,1,1,0,0,1-.67.22,1.15,1.15,0,0,1-.66-.16l0,.18a1.21,1.21,0,0,0,.57,1.05,2.61,2.61,0,0,0,1.5.39,6.23,6.23,0,0,0,1.82-.28,9.77,9.77,0,0,0,2-.93,22.1,22.1,0,0,0,2.43-1.68c.89-.7,1.89-1.55,3-2.56s2.29-2.19,3.61-3.54l4.38-4.64Q24,5.81,26.75,3.36a8.49,8.49,0,0,1,2.33-1.75c.27,0,.41,0,.41.15s-.06.15-.18.26l-.43.36a10.52,10.52,0,0,0-1.47,1.7L25.78,6.45l-4,6.15q-5.55,9-6.25,10.49l2.52-2.89,2.2-2.46,2.09-2.24,2.18-2.21L27,10.87,30,8q6.89-6.46,8.67-6.47.15,0,.15.12t-.39.39A13.58,13.58,0,0,0,37.3,3a23.07,23.07,0,0,0-1.85,1.86c-.75.82-1.51,1.71-2.3,2.68l-2.39,3.07-2.42,3.29c-3.64,5.11-5.55,7.84-5.76,8.2A2.69,2.69,0,0,0,22.19,23.06Z" transform="translate(-0.29 0.07)"/><path d="M37.28,22.76a10.26,10.26,0,0,1-2.08,1,6.35,6.35,0,0,1-2.11.39,4.53,4.53,0,0,1-1.52-.2,2.4,2.4,0,0,1-.86-.57q-1.42-1.55,0-4.56a7.46,7.46,0,0,1,1.88-2.43,13.62,13.62,0,0,1,2.21-1.64,7.06,7.06,0,0,1,3.46-1.06c1.07,0,1.63.34,1.68,1q.1,1.62-3.93,3.53a36.41,36.41,0,0,1-3.74,1.44,4.87,4.87,0,0,0-.9,2.37,1.58,1.58,0,0,0,.48,1.3,2.21,2.21,0,0,0,1.39.38,5.84,5.84,0,0,0,2-.39,10.38,10.38,0,0,0,2-1A11.13,11.13,0,0,0,38.93,21c.51-.47,1-.93,1.34-1.36s.71-.81,1-1.13a5.42,5.42,0,0,1,.5-.59l.32.25a5.54,5.54,0,0,0-.6.68,14.42,14.42,0,0,1-1,1.18q-.61.66-1.41,1.38A12.44,12.44,0,0,1,37.28,22.76Zm-4.64-3.62c3-1.07,5-2.14,5.88-3.2a1.58,1.58,0,0,0,.44-1q0-.84-.78-.84c-.93,0-2.09.81-3.49,2.43A26.73,26.73,0,0,0,32.64,19.14Z" transform="translate(-0.29 0.07)"/><path d="M40.16,23.18c0,.33.24.5.72.5a3.66,3.66,0,0,0,1.56-.39,10.28,10.28,0,0,0,1.63-1A19,19,0,0,0,45.64,21c.5-.47,1-.91,1.38-1.34l1-1.12q.42-.48.57-.63l.31.25c-.11.11-.32.34-.61.67s-.67.72-1.09,1.15-.91.89-1.44,1.38a17.26,17.26,0,0,1-1.66,1.33,6.48,6.48,0,0,1-3.53,1.39,1.55,1.55,0,0,1-1-.35,1,1,0,0,1-.42-.75,5.17,5.17,0,0,1,0-.64,3.2,3.2,0,0,1,.16-.55,6.61,6.61,0,0,1,.35-.73c.15-.28.35-.61.6-1l2.32-3.43L54.31-.07a7.46,7.46,0,0,0,2.11,0Q42,20,41.46,20.76l-.76,1.15q-.24.39-.36.63A1.49,1.49,0,0,0,40.16,23.18Z" transform="translate(-0.29 0.07)"/><path d="M47.3,23.18c0,.36.24.54.73.54A4,4,0,0,0,50.21,23a25.08,25.08,0,0,0,5.24-5l3.43-4.14a11,11,0,0,0,1.32.09,9,9,0,0,0,1,0L59.7,15.55l-5.36,6.52a2,2,0,0,0-.53,1.06c0,.37.24.55.73.55a3.35,3.35,0,0,0,1.5-.39,10.2,10.2,0,0,0,1.56-1A18.36,18.36,0,0,0,59.12,21c.5-.47,1-.91,1.35-1.34l1.59-1.75.3.25-.59.67c-.29.33-.65.72-1.07,1.15l-1.41,1.38q-2.9,2.72-4.8,2.72a1.51,1.51,0,0,1-1-.34,1.22,1.22,0,0,1-.43-.92,4.89,4.89,0,0,1,.77-2.49q-3.48,3.75-5.9,3.75a1.64,1.64,0,0,1-1.74-1,2.14,2.14,0,0,1-.12-.69,2.85,2.85,0,0,1,.2-1,7.47,7.47,0,0,1,.66-1.28c.29-.46.65-.95,1.07-1.49l2.73-3.3q.63-.78,1.35-1.56a6.57,6.57,0,0,0,.95.09h.51a4.81,4.81,0,0,0,.84,0c-1.18,1.29-2,2.22-2.48,2.8l-3,3.62C47.8,21.49,47.28,22.46,47.3,23.18Z" transform="translate(-0.29 0.07)"/></svg>